<?xml version="1.0" standalone="no"?>
<!DOCTYPE svg PUBLIC "-//W3C//DTD SVG 20010904//EN"
 "http://www.w3.org/TR/2001/REC-SVG-20010904/DTD/svg10.dtd">
<svg version="1.0" xmlns="http://www.w3.org/2000/svg"
 width="512.000000pt" height="512.000000pt" viewBox="0 0 512.000000 512.000000"
 preserveAspectRatio="xMidYMid meet">
<metadata>
Created by potrace 1.14, written by Peter Selinger 2001-2017
</metadata>
<g transform="translate(0.000000,512.000000) scale(0.100000,-0.100000)"
fill="#000000" stroke="none">
<path d="M2305 4624 c-427 -54 -814 -230 -1130 -514 -357 -321 -581 -728 -669
-1215 -21 -114 -28 -416 -13 -569 4 -43 15 -110 23 -150 9 -39 18 -82 20 -96
3 -14 18 -68 33 -120 182 -611 658 -1121 1255 -1345 94 -35 284 -89 351 -99
17 -2 66 -10 110 -17 124 -20 482 -17 591 5 12 2 38 7 59 10 155 25 370 96
537 178 273 133 513 325 705 562 166 205 316 490 379 721 64 229 83 386 79
635 -4 200 -24 336 -79 525 -35 122 -103 295 -115 294 -12 -1 -336 -437 -335
-451 1 -7 12 -62 25 -123 18 -87 23 -144 23 -275 1 -91 -2 -191 -6 -222 -66
-515 -389 -977 -849 -1215 -159 -82 -316 -135 -469 -159 -19 -3 -60 -9 -90
-14 -30 -5 -127 -7 -215 -4 -154 4 -173 5 -240 18 -16 3 -43 8 -60 11 -103 19
-281 83 -395 142 -415 217 -706 583 -819 1028 -41 165 -46 210 -45 415 1 287
65 527 206 773 194 339 500 593 873 722 59 21 239 63 304 72 111 15 406 8 495
-12 12 -3 32 -7 46 -9 149 -27 425 -140 529 -217 l30 -22 128 99 c70 55 146
113 168 129 22 16 46 35 53 42 7 7 20 17 29 21 9 5 13 14 9 20 -8 14 -200 144
-261 176 -27 15 -57 31 -65 36 -128 75 -476 188 -631 205 -30 4 -61 9 -69 12
-31 12 -408 10 -505 -3z"/>
<path d="M4385 4197 c-16 -6 -50 -26 -75 -46 -74 -59 -850 -707 -965 -806 -27
-24 -135 -116 -240 -205 -104 -89 -212 -181 -240 -205 -27 -23 -66 -56 -85
-71 -19 -16 -48 -41 -64 -56 -21 -20 -36 -26 -51 -21 -37 11 -159 10 -222 -3
-102 -21 -189 -70 -273 -154 -116 -115 -170 -249 -165 -410 5 -147 55 -263
160 -372 71 -72 180 -132 280 -154 92 -20 241 -6 334 33 159 67 295 233 327
398 10 56 12 175 3 208 -7 25 1 38 79 130 125 147 126 149 137 161 6 6 103
119 215 251 113 132 214 251 226 265 12 14 86 102 164 195 154 184 219 262
235 279 6 6 28 34 49 61 22 28 44 55 50 60 6 6 47 55 91 110 44 55 88 109 98
120 38 41 69 106 70 146 2 70 -64 111 -138 86z"/>
<path d="M2495 3986 c-101 -44 -125 -178 -46 -257 69 -70 178 -61 239 20 22
28 27 45 26 92 0 47 -5 64 -28 94 -46 60 -123 81 -191 51z"/>
<path d="M1855 3826 c-102 -44 -126 -180 -45 -257 81 -77 200 -57 251 43 66
129 -72 272 -206 214z"/>
<path d="M3135 3826 c-42 -18 -83 -69 -91 -111 -21 -113 71 -208 182 -191 80
13 129 73 129 158 0 61 -17 94 -67 131 -33 25 -113 32 -153 13z"/>
<path d="M1375 3346 c-94 -41 -124 -168 -58 -247 35 -41 78 -58 134 -55 88 6
144 67 144 157 0 46 -5 63 -29 94 -46 60 -123 81 -191 51z"/>
<path d="M1215 2706 c-103 -45 -126 -180 -44 -258 72 -68 177 -59 237 21 22
28 27 45 27 91 -1 47 -6 64 -29 95 -46 60 -123 81 -191 51z"/>
<path d="M3775 2706 c-131 -59 -119 -260 18 -297 176 -47 282 175 135 284 -33
25 -113 32 -153 13z"/>
</g>
</svg>
